<svg width="108" height="86" viewBox="0 0 108 86" fill="none" xmlns="http://www.w3.org/2000/svg">
<path d="M96.75 21.75V11L54 37.75L11.25 11V21.75L54 48.25L96.75 21.75ZM96.75 0.25C99.5833 0.25 102 1.33333 104 3.5C106.167 5.66667 107.25 8.16667 107.25 11V75C107.25 77.8333 106.167 80.3333 104 82.5C102 84.6667 99.5833 85.75 96.75 85.75H11.25C8.41667 85.75 5.91667 84.6667 3.75 82.5C1.75 80.3333 0.75 77.8333 0.75 75V11C0.75 8.16667 1.75 5.66667 3.75 3.5C5.91667 1.33333 8.41667 0.25 11.25 0.25H96.75Z" fill="#EA4335" fill-opacity="0.6"/>
</svg>
