<svg width="16" height="16" viewBox="0 0 16 16" fill="none" xmlns="http://www.w3.org/2000/svg">
<path d="M9.67969 0.5H15.5V6.32031H13.8203V3.35156L5.65625 11.5156L4.48438 10.3438L12.6484 2.17969H9.67969V0.5ZM13.8203 13.8203V8H15.5V13.8203C15.5 14.263 15.3307 14.6536 14.9922 14.9922C14.6536 15.3307 14.263 15.5 13.8203 15.5H2.17969C1.71094 15.5 1.30729 15.3438 0.96875 15.0312C0.65625 14.6927 0.5 14.2891 0.5 13.8203V2.17969C0.5 1.71094 0.65625 1.32031 0.96875 1.00781C1.30729 0.669271 1.71094 0.5 2.17969 0.5H8V2.17969H2.17969V13.8203H13.8203Z" fill="black"/>
</svg>
