<svg width="28" height="24" viewBox="0 0 28 24" fill="none" xmlns="http://www.w3.org/2000/svg">
<path d="M22 0V5.3125H6V0H22ZM22.375 11.625C22.625 11.875 22.9375 12 23.3125 12C23.6875 12 24 11.875 24.25 11.625C24.5417 11.375 24.6875 11.0625 24.6875 10.6875C24.6875 10.3125 24.5417 10 24.25 9.75C24 9.45833 23.6875 9.3125 23.3125 9.3125C22.9375 9.3125 22.625 9.45833 22.375 9.75C22.125 10 22 10.3125 22 10.6875C22 11.0625 22.125 11.375 22.375 11.625ZM19.3125 21.3125V14.6875H8.6875V21.3125H19.3125ZM23.3125 6.6875C24.3958 6.6875 25.3333 7.08333 26.125 7.875C26.9167 8.66667 27.3125 9.60417 27.3125 10.6875V18.6875H22V24H6V18.6875H0.6875V10.6875C0.6875 9.60417 1.08333 8.66667 1.875 7.875C2.66667 7.08333 3.60417 6.6875 4.6875 6.6875H23.3125Z" fill="black"/>
</svg>
