<svg width="106" height="108" viewBox="0 0 106 108" fill="none" xmlns="http://www.w3.org/2000/svg">
<path d="M90.5 16.25C85.5 11.25 79.75 7.41667 73.25 4.75C66.9167 2.08333 60.25 0.75 53.25 0.75C45.9167 0.75 39.0833 2.16667 32.75 5C26.4167 7.66667 20.75 11.4167 15.75 16.25C10.9167 21.0833 7.08333 26.6667 4.25 33C1.58333 39.3333 0.25 46.1667 0.25 53.5C0.25 63 2.66667 71.8333 7.5 80L0 107.25L28 100C35.8333 104.333 44.25 106.5 53.25 106.5C60.5833 106.5 67.4167 105.167 73.75 102.5C80.0833 99.6667 85.6667 95.8333 90.5 91C95.3333 86.1667 99.0833 80.5833 101.75 74.25C104.583 67.75 106 60.8333 106 53.5C106 46.5 104.667 39.8333 102 33.5C99.3333 27 95.5 21.25 90.5 16.25ZM53.25 97.5C45.25 97.5 37.75 95.4167 30.75 91.25L29.25 90.25L12.5 94.75L17 78.5L16 77C11.5 69.8333 9.25 62 9.25 53.5C9.25 47.5 10.3333 41.8333 12.5 36.5C14.8333 31.1667 18 26.5 22 22.5C26.1667 18.5 30.8333 15.3333 36 13C41.3333 10.6667 47.0833 9.5 53.25 9.5C59.0833 9.5 64.6667 10.6667 70 13C75.3333 15.1667 80.0833 18.3333 84.25 22.5C88.4167 26.6667 91.5833 31.4167 93.75 36.75C95.9167 42.0833 97 47.6667 97 53.5C97 59.6667 95.8333 65.4167 93.5 70.75C91.3333 75.9167 88.25 80.5833 84.25 84.75C80.25 88.75 75.5833 91.9167 70.25 94.25C64.9167 96.4167 59.25 97.5 53.25 97.5ZM77.25 64.5C76.9167 64.3333 76.0833 64 74.75 63.5C73.4167 62.8333 72.0833 62.1667 70.75 61.5C69.5833 60.8333 68.75 60.4167 68.25 60.25C67.75 60.0833 67.25 60 66.75 60C66.25 60 65.75 60.3333 65.25 61C64.9167 61.6667 64.25 62.5833 63.25 63.75C62.25 64.9167 61.5833 65.6667 61.25 66C60.4167 67 59.4167 67.1667 58.25 66.5C57.5833 66.1667 56.25 65.5833 54.25 64.75C52.4167 63.75 50.25 62.0833 47.75 59.75C45.75 58.0833 44.0833 56.3333 42.75 54.5C41.5833 52.6667 40.75 51.4167 40.25 50.75C39.9167 50.0833 39.8333 49.5833 40 49.25C40.1667 48.75 40.5 48.3333 41 48C41.1667 47.6667 41.4167 47.3333 41.75 47C42.25 46.5 42.5833 46.0833 42.75 45.75C43.0833 45.25 43.3333 44.9167 43.5 44.75C43.8333 44.4167 44.0833 44 44.25 43.5C44.4167 43 44.4167 42.5833 44.25 42.25C44.25 41.9167 44.1667 41.5833 44 41.25C44 41.0833 43.75 40.4167 43.25 39.25C42.75 37.9167 42.1667 36.5 41.5 35C40.8333 33.5 40.3333 32.3333 40 31.5C39.5 30.1667 39 29.5 38.5 29.5C38 29.3333 37.5 29.1667 37 29C36.6667 29 36.25 29 35.75 29C35.4167 29 35 29 34.5 29C34 29 33.4167 29.1667 32.75 29.5C32.25 29.6667 31.6667 30.0833 31 30.75C30.3333 31.4167 29.4167 32.6667 28.25 34.5C27.0833 36.1667 26.5 38.5833 26.5 41.75C26.5 43.9167 26.8333 46 27.5 48C28.3333 50 29.1667 51.6667 30 53C31 54.3333 31.5833 55.1667 31.75 55.5C31.9167 55.6667 32.5833 56.5833 33.75 58.25C34.9167 59.75 36.4167 61.5833 38.25 63.75C40.25 65.75 42.5833 67.8333 45.25 70C47.9167 72.1667 50.9167 74 54.25 75.5C55.9167 76.1667 57.3333 76.75 58.5 77.25C59.8333 77.5833 60.9167 77.9167 61.75 78.25C63.4167 78.75 64.9167 79 66.25 79C67.75 79 69.0833 78.9167 70.25 78.75C71.0833 78.5833 72.0833 78.25 73.25 77.75C74.5833 77.0833 75.75 76.3333 76.75 75.5C77.9167 74.5 78.6667 73.5 79 72.5C79.6667 70.8333 80 69.4167 80 68.25C80 67.0833 79.9167 66.3333 79.75 66C79.5833 65.8333 79.25 65.6667 78.75 65.5C78.4167 65.1667 77.9167 64.8333 77.25 64.5Z" fill="#67C587"/>
</svg>
