<svg width="66" height="68" viewBox="0 0 66 68" fill="none" xmlns="http://www.w3.org/2000/svg">
<g filter="url(#filter0_d_548_4138)">
<rect x="7.25" y="6" width="49.5" height="52" rx="8" fill="#6AB04C"/>
<g clip-path="url(#clip0_548_4138)">
<path d="M23.25 30.75H30.75V23.25H23.25V30.75ZM25.75 25.75H28.25V28.25H25.75V25.75ZM33.25 23.25V30.75H40.75V23.25H33.25ZM38.25 28.25H35.75V25.75H38.25V28.25ZM23.25 40.75H30.75V33.25H23.25V40.75ZM25.75 35.75H28.25V38.25H25.75V35.75ZM39.5 33.25H40.75V38.25H37V37H35.75V40.75H33.25V33.25H37V34.5H39.5V33.25ZM39.5 39.5H40.75V40.75H39.5V39.5ZM37 39.5H38.25V40.75H37V39.5Z" fill="white"/>
</g>
</g>
<defs>
<filter id="filter0_d_548_4138" x="0.25" y="0" width="65.5" height="68" filterUnits="userSpaceOnUse" color-interpolation-filters="sRGB">
<feFlood flood-opacity="0" result="BackgroundImageFix"/>
<feColorMatrix in="SourceAlpha" type="matrix" values="0 0 0 0 0 0 0 0 0 0 0 0 0 0 0 0 0 0 127 0" result="hardAlpha"/>
<feOffset dx="1" dy="2"/>
<feGaussianBlur stdDeviation="4"/>
<feComposite in2="hardAlpha" operator="out"/>
<feColorMatrix type="matrix" values="0 0 0 0 0.0705882 0 0 0 0 0.0705882 0 0 0 0 0.0705882 0 0 0 0.16 0"/>
<feBlend mode="normal" in2="BackgroundImageFix" result="effect1_dropShadow_548_4138"/>
<feBlend mode="normal" in="SourceGraphic" in2="effect1_dropShadow_548_4138" result="shape"/>
</filter>
<clipPath id="clip0_548_4138">
<rect width="17.5" height="20" fill="white" transform="translate(23.25 22)"/>
</clipPath>
</defs>
</svg>
