<svg width="150" height="64" viewBox="0 0 150 80" fill="none" xmlns="http://www.w3.org/2000/svg">
<path d="M11.3401 28.0349C11.3401 31.0918 8.79654 33.6066 5.635 33.6066C2.47345 33.6066 0 31.0918 0 28.0349C0 24.9779 2.5436 22.4632 5.635 22.4632C8.7264 22.4632 11.3401 24.9087 11.3401 28.0349ZM31.3399 13.9713C28.1783 13.9713 25.7049 16.4844 25.6347 19.543V45.0895C25.6347 48.1464 23.1613 50.6612 19.9997 50.6612C16.8382 50.6612 14.3647 48.1481 14.3647 45.0895V19.5414C14.3647 10.3689 21.8569 2.89544 31.1344 2.75866C34.159 2.82623 36.6325 5.341 36.6325 8.39794C36.6325 11.4549 34.0889 13.9696 30.9975 13.9696H31.3415L31.3399 13.9713ZM39.8625 28.0349C39.8625 31.0918 37.3189 33.6066 34.1574 33.6066C30.9958 33.6066 28.5224 31.0935 28.5224 28.0349C28.5224 24.9763 31.066 22.4632 34.1574 22.4632C37.2488 22.4632 39.8625 24.9087 39.8625 28.0349Z" fill="#130F40"/>
<path d="M44.3284 8.39959C44.3284 5.27508 46.8019 2.76031 49.9634 2.76031C53.125 2.76031 55.5984 5.27343 55.5984 8.39959C55.5984 11.5257 53.125 13.9713 49.9634 13.9713C46.8019 13.9713 44.3284 11.4582 44.3284 8.39959ZM55.6001 22.328V45.0895C55.6001 48.1464 53.1266 50.6612 49.9651 50.6612C46.8035 50.6612 44.3301 48.1481 44.3301 45.0895V22.328C44.3301 19.2711 46.8035 16.7563 49.9651 16.7563C53.1266 16.7563 55.6001 19.2694 55.6001 22.328Z" fill="#130F40"/>
<path d="M66.8701 19.8825C67.1456 19.6781 67.488 19.4754 67.8321 19.2711L67.969 19.136H68.0375C70.855 17.7764 74.2921 19.0008 75.6666 21.7859C76.6971 23.8919 76.2846 26.4067 74.7731 28.0365C74.4068 28.3991 73.9258 28.8292 73.3301 29.3269C72.0926 30.3453 71.1306 31.5697 71.1306 33.6758C71.1306 36.802 73.7426 39.3151 76.9042 39.3151C77.8662 39.2475 79.1037 39.1783 80.4782 38.0247C81.7843 37.0063 82.6093 35.4424 82.6093 33.6758V8.39959C82.6093 5.27508 85.1529 2.76031 88.3145 2.76031C91.476 2.76031 94.0881 5.27343 94.0881 8.39959V33.6742C94.0196 35.1688 93.8827 36.596 93.5386 37.9539C91.6146 45.2246 84.879 50.6595 76.9059 50.6595H76.8374C67.4212 50.6595 59.7236 43.0493 59.7236 33.6742C59.7236 28.0349 62.5411 23.007 66.8717 19.8808L66.8701 19.8825Z" fill="#130F40"/>
<path d="M114.472 27.6081C111.975 27.6081 110.113 27.0988 108.887 26.0821C107.66 25.0653 107.047 23.3646 107.047 20.9833V17.3446H97.3866C97.3866 14.876 97.901 13.0353 98.9314 11.8224C99.9602 10.6111 101.68 10.003 104.09 10.003H107.048V0C109.545 0 111.407 0.477905 112.633 1.42877C113.859 2.38128 114.474 3.8974 114.474 5.97546V10.003H124.002C124.002 12.4717 123.519 14.3124 122.555 15.5253C121.592 16.7382 120.059 17.3446 117.956 17.3446H114.474V27.6081H114.472Z" fill="#6AB04C"/>
<path d="M16.6745 59.4794C17.5931 59.4794 18.3213 59.9358 18.6369 60.7466H17.9739C17.7434 60.2424 17.2925 59.9589 16.6728 59.9589C15.786 59.9589 15.123 60.595 15.123 61.6233C15.123 62.6517 15.786 63.2812 16.6728 63.2812C17.2925 63.2812 17.7434 62.9994 17.9739 62.5H18.6369C18.3213 63.3042 17.5914 63.7558 16.6745 63.7558C15.4887 63.7558 14.5601 62.8791 14.5601 61.6233C14.5601 60.3676 15.4904 59.4794 16.6745 59.4794Z" fill="#6AB04C"/>
<path d="M22.7905 63.7624C21.5997 63.7624 20.6628 62.8791 20.6628 61.6233C20.6628 60.3676 21.598 59.4843 22.7905 59.4843C23.983 59.4843 24.9182 60.3676 24.9182 61.6233C24.9182 62.8791 23.988 63.7624 22.7905 63.7624ZM22.7905 63.2878C23.684 63.2878 24.3521 62.6451 24.3521 61.6233C24.3521 60.6016 23.684 59.9589 22.7905 59.9589C21.897 59.9589 21.2289 60.595 21.2289 61.6233C21.2289 62.6517 21.897 63.2878 22.7905 63.2878Z" fill="#6AB04C"/>
<path d="M30.3879 59.5271V63.7195H29.8351L27.6105 60.3857V63.7195H27.0577V59.5271H27.6105L29.8351 62.856V59.5271H30.3879Z" fill="#6AB04C"/>
<path d="M35.0191 59.977H33.2922V61.3761H34.8354V61.826H33.2922V63.268H35.0191V63.7179H32.7394V59.5255H35.0191V59.977Z" fill="#6AB04C"/>
<path d="M39.1761 59.4794C40.0947 59.4794 40.8228 59.9358 41.1385 60.7466H40.4754C40.245 60.2424 39.794 59.9589 39.1744 59.9589C38.2876 59.9589 37.6245 60.595 37.6245 61.6233C37.6245 62.6517 38.2876 63.2812 39.1744 63.2812C39.794 63.2812 40.2433 62.9994 40.4754 62.5H41.1385C40.8228 63.3042 40.093 63.7558 39.1761 63.7558C37.9903 63.7558 37.06 62.8791 37.06 61.6233C37.06 60.3676 37.9903 59.4794 39.1761 59.4794Z" fill="#6AB04C"/>
<path d="M43.1076 59.5321H45.9768V59.977H44.8211V63.7195H44.2683V59.977H43.1076V59.5321Z" fill="#6AB04C"/>
<path d="M50.3475 59.977H48.6223V61.3761H50.1655V61.826H48.6223V63.268H50.3475V63.7179H48.0678V59.5255H50.3475V59.977Z" fill="#6AB04C"/>
<path d="M57.9082 59.977H56.1813V61.3761H57.7245V61.826H56.1813V63.268H57.9082V63.7179H55.6285V59.5255H57.9082V59.977Z" fill="#6AB04C"/>
<path d="M63.1891 59.5321H65.5841V59.977H63.7419V61.3893H65.2367V61.8343H63.7419V63.7212H63.1891V59.5321Z" fill="#6AB04C"/>
<path d="M67.6634 59.5321H68.2162V63.7195H67.6634V59.5321Z" fill="#6AB04C"/>
<path d="M74.1368 61.6349C74.1368 62.9318 73.28 63.7195 71.8888 63.7195H70.5694V59.5321H71.8888C73.28 59.5321 74.1368 60.3363 74.1368 61.6349ZM71.8888 63.2696C72.9944 63.2696 73.5723 62.6566 73.5723 61.6349C73.5723 60.6131 72.9944 59.977 71.8888 59.977H71.1239V63.2696H71.8888Z" fill="#6AB04C"/>
<path d="M78.5543 59.977H76.829V61.3761H78.3722V61.826H76.829V63.268H78.5543V63.7179H76.2746V59.5255H78.5543V59.977Z" fill="#6AB04C"/>
<path d="M81.3567 59.5321V63.2746H82.8398V63.7195H80.8039V59.5321H81.3567Z" fill="#6AB04C"/>
<path d="M84.8389 59.5321H85.3918V63.7195H84.8389V59.5321Z" fill="#6AB04C"/>
<path d="M90.2668 59.9655L88.2126 63.2449H90.2785V63.7195H87.5562V63.2878L89.6105 60.0084H87.5796V59.5337H90.2668V59.9655Z" fill="#6AB04C"/>
<path d="M94.7227 59.977H92.9975V61.3761H94.5407V61.826H92.9975V63.268H94.7227V63.7179H92.443V59.5255H94.7227V59.977Z" fill="#6AB04C"/>
</svg>
