<svg width="63" height="78" viewBox="0 0 63 78" fill="none" xmlns="http://www.w3.org/2000/svg">
<path d="M17.8333 40.8472C17.8333 45.7373 13.8333 49.7602 8.86149 49.7602C3.8897 49.7602 0 45.7373 0 40.8472C0 35.957 4.00001 31.9342 8.86149 31.9342C13.723 31.9342 17.8333 35.8463 17.8333 40.8472ZM49.2845 18.3498C44.3127 18.3498 40.423 22.37 40.3127 27.2628V68.1292C40.3127 73.0194 36.423 77.0423 31.4512 77.0423C26.4794 77.0423 22.5897 73.022 22.5897 68.1292V27.2602C22.5897 12.5871 34.3717 0.631891 48.9614 0.413086C53.7178 0.52117 57.6075 4.54402 57.6075 9.43418C57.6075 14.3243 53.6075 18.3472 48.7461 18.3472H49.2871L49.2845 18.3498ZM62.687 40.8472C62.687 45.7373 58.687 49.7602 53.7152 49.7602C48.7434 49.7602 44.8537 45.74 44.8537 40.8472C44.8537 35.9544 48.8537 31.9342 53.7152 31.9342C58.5767 31.9342 62.687 35.8463 62.687 40.8472Z" fill="#130F40"/>
</svg>
