<svg width="55" height="78" viewBox="0 0 55 78" fill="none" xmlns="http://www.w3.org/2000/svg">
<path d="M12.1586 27.8062C12.592 27.4793 13.1304 27.155 13.6714 26.8281L13.8868 26.612H13.9944C18.4252 24.4371 23.8303 26.3958 25.9919 30.851C27.6124 34.2201 26.9636 38.2429 24.5867 40.8501C24.0107 41.4301 23.2543 42.1181 22.3175 42.9143C20.3714 44.5434 18.8585 46.5021 18.8585 49.8712C18.8585 54.8721 22.9662 58.8923 27.938 58.8923C29.4508 58.7842 31.397 58.6735 33.5585 56.8281C35.6124 55.199 36.9098 52.6972 36.9098 49.8712V9.43711C36.9098 4.43886 40.9098 0.416016 45.8816 0.416016C50.8534 0.416016 54.9611 4.43623 54.9611 9.43711V49.8686C54.8534 52.2596 54.6381 54.5425 54.097 56.7148C51.0714 68.3457 40.4791 77.0399 27.9407 77.0399H27.833C13.0253 77.0399 0.920212 64.8659 0.920212 49.8686C0.920212 40.8475 5.35095 32.8044 12.1612 27.8035L12.1586 27.8062Z" fill="#130F40"/>
</svg>
