<svg width="195" height="102" viewBox="0 0 195 102" fill="none" xmlns="http://www.w3.org/2000/svg">
<g clip-path="url(#clip0_1678_3950)">
<path d="M17.8333 44.8472C17.8333 49.7373 13.8333 53.7602 8.86149 53.7602C3.8897 53.7602 0 49.7373 0 44.8472C0 39.957 4.00001 35.9342 8.86149 35.9342C13.723 35.9342 17.8333 39.8463 17.8333 44.8472ZM49.2845 22.3498C44.3127 22.3498 40.423 26.37 40.3127 31.2628V72.1292C40.3127 77.0194 36.423 81.0423 31.4512 81.0423C26.4794 81.0423 22.5897 77.022 22.5897 72.1292V31.2602C22.5897 16.5871 34.3717 4.63189 48.9614 4.41309C53.7178 4.52117 57.6075 8.54402 57.6075 13.4342C57.6075 18.3243 53.6075 22.3472 48.7461 22.3472H49.2871L49.2845 22.3498ZM62.687 44.8472C62.687 49.7373 58.687 53.7602 53.7152 53.7602C48.7434 53.7602 44.8537 49.74 44.8537 44.8472C44.8537 39.9544 48.8537 35.9342 53.7152 35.9342C58.5767 35.9342 62.687 39.8463 62.687 44.8472Z" fill="#130F40"/>
<path d="M69.71 13.4371C69.71 8.43886 73.5997 4.41602 78.5714 4.41602C83.5432 4.41602 87.4329 8.43623 87.4329 13.4371C87.4329 18.438 83.5432 22.3501 78.5714 22.3501C73.5997 22.3501 69.71 18.3299 69.71 13.4371ZM87.4356 35.7183V72.1295C87.4356 77.0197 83.5459 81.0426 78.5741 81.0426C73.6023 81.0426 69.7126 77.0223 69.7126 72.1295V35.7183C69.7126 30.8281 73.6023 26.8053 78.5741 26.8053C83.5459 26.8053 87.4356 30.8255 87.4356 35.7183Z" fill="#130F40"/>
<path d="M105.159 31.8062C105.592 31.4793 106.13 31.155 106.671 30.8281L106.887 30.612H106.994C111.425 28.4371 116.83 30.3958 118.992 34.851C120.612 38.2201 119.964 42.2429 117.587 44.8501C117.011 45.4301 116.254 46.1181 115.317 46.9143C113.371 48.5434 111.859 50.5021 111.859 53.8712C111.859 58.8721 115.966 62.8923 120.938 62.8923C122.451 62.7842 124.397 62.6735 126.558 60.8281C128.612 59.199 129.91 56.6972 129.91 53.8712V13.4371C129.91 8.43886 133.91 4.41602 138.882 4.41602C143.853 4.41602 147.961 8.43623 147.961 13.4371V53.8686C147.853 56.2596 147.638 58.5425 147.097 60.7148C144.071 72.3457 133.479 81.0399 120.941 81.0399H120.833C106.025 81.0399 93.9202 68.8659 93.9202 53.8686C93.9202 44.8475 98.3509 36.8044 105.161 31.8035L105.159 31.8062Z" fill="#130F40"/>
<path d="M180.016 44.1643C176.09 44.1643 173.161 43.3497 171.234 41.7232C169.303 40.0967 168.339 37.3761 168.339 33.5668V27.746H153.148C153.148 23.797 153.957 20.8524 155.578 18.9121C157.195 16.9745 159.901 16.0018 163.691 16.0018H168.342V0C172.268 0 175.197 0.764499 177.125 2.28559C179.052 3.80931 180.019 6.23462 180.019 9.55887V16.0018H195.003C195.003 19.9508 194.244 22.8954 192.728 24.8357C191.213 26.7759 188.802 27.746 185.495 27.746H180.019V44.1643H180.016Z" fill="#6AB04C"/>
<path d="M26.222 95.1484C27.6665 95.1484 28.8116 95.8787 29.308 97.1757H28.2653C27.9029 96.369 27.1938 95.9156 26.2194 95.9156C24.8248 95.9156 23.7821 96.9332 23.7821 98.5781C23.7821 100.223 24.8248 101.23 26.2194 101.23C27.1938 101.23 27.9029 100.779 28.2653 99.9806H29.308C28.8116 101.267 27.6639 101.989 26.222 101.989C24.3573 101.989 22.897 100.587 22.897 98.5781C22.897 96.5694 24.3599 95.1484 26.222 95.1484Z" fill="#6AB04C"/>
<path d="M35.8399 102C33.9673 102 32.4939 100.587 32.4939 98.578C32.4939 96.5693 33.9647 95.1562 35.8399 95.1562C37.7152 95.1562 39.186 96.5693 39.186 98.578C39.186 100.587 37.7231 102 35.8399 102ZM35.8399 101.241C37.2451 101.241 38.2956 100.212 38.2956 98.578C38.2956 96.9436 37.2451 95.9155 35.8399 95.9155C34.4348 95.9155 33.3842 96.9331 33.3842 98.578C33.3842 100.223 34.4348 101.241 35.8399 101.241Z" fill="#6AB04C"/>
<path d="M47.7873 95.2246V101.931H46.918L43.4196 96.5981V101.931H42.5503V95.2246H43.4196L46.918 100.55V95.2246H47.7873Z" fill="#6AB04C"/>
<path d="M55.0704 95.945H52.3547V98.1831H54.7815V98.9028H52.3547V101.209H55.0704V101.929H51.4854V95.2227H55.0704V95.9423V95.945Z" fill="#6AB04C"/>
<path d="M61.6076 95.1484C63.0521 95.1484 64.1972 95.8787 64.6936 97.1757H63.6509C63.2885 96.369 62.5793 95.9156 61.6049 95.9156C60.2103 95.9156 59.1676 96.9332 59.1676 98.5781C59.1676 100.223 60.2103 101.23 61.6049 101.23C62.5793 101.23 63.2858 100.779 63.6509 99.9806H64.6936C64.1972 101.267 63.0495 101.989 61.6076 101.989C59.7428 101.989 58.2799 100.587 58.2799 98.5781C58.2799 96.5694 59.7428 95.1484 61.6076 95.1484Z" fill="#6AB04C"/>
<path d="M67.79 95.2324H72.3022V95.9442H70.4847V101.931H69.6154V95.9442H67.79V95.2324Z" fill="#6AB04C"/>
<path d="M79.1756 95.945H76.4625V98.1831H78.8893V98.9028H76.4625V101.209H79.1756V101.929H75.5906V95.2227H79.1756V95.9423V95.945Z" fill="#6AB04C"/>
<path d="M91.0653 95.945H88.3496V98.1831H90.7764V98.9028H88.3496V101.209H91.0653V101.929H87.4802V95.2227H91.0653V95.9423V95.945Z" fill="#6AB04C"/>
<path d="M99.37 95.2324H103.136V95.9442H100.239V98.2034H102.59V98.9152H100.239V101.934H99.37V95.2351V95.2324Z" fill="#6AB04C"/>
<path d="M106.406 95.2324H107.275V101.931H106.406V95.2324Z" fill="#6AB04C"/>
<path d="M116.586 98.5962C116.586 100.671 115.239 101.931 113.051 101.931H110.976V95.2324H113.051C115.239 95.2324 116.586 96.5189 116.586 98.5962ZM113.051 101.211C114.79 101.211 115.698 100.231 115.698 98.5962C115.698 96.9618 114.79 95.9442 113.051 95.9442H111.848V101.211H113.051Z" fill="#6AB04C"/>
<path d="M123.533 95.945H120.82V98.1831H123.247V98.9028H120.82V101.209H123.533V101.929H119.948V95.2227H123.533V95.9423V95.945Z" fill="#6AB04C"/>
<path d="M127.94 95.2324V101.219H130.272V101.931H127.071V95.2324H127.94Z" fill="#6AB04C"/>
<path d="M133.416 95.2324H134.285V101.931H133.416V95.2324Z" fill="#6AB04C"/>
<path d="M141.952 95.926L138.721 101.172H141.97V101.931H137.689V101.241L140.92 95.9946H137.726V95.2354H141.952V95.926Z" fill="#6AB04C"/>
<path d="M148.959 95.945H146.246V98.1831H148.673V98.9028H146.246V101.209H148.959V101.929H145.374V95.2227H148.959V95.9423V95.945Z" fill="#6AB04C"/>
</g>
<defs>
<clipPath id="clip0_1678_3950">
<rect width="195" height="102" fill="white"/>
</clipPath>
</defs>
</svg>
