<svg width="245" height="140" viewBox="0 0 245 140" fill="none" xmlns="http://www.w3.org/2000/svg">
<path d="M112.448 -18.4983C116.356 -22.4439 122.668 -22.4822 126.606 -18.5841C130.545 -14.6802 130.571 -8.37275 126.663 -4.42138C122.755 -0.475749 116.443 -0.437512 112.505 -4.3356C108.566 -8.23368 108.54 -14.5469 112.449 -18.4926L112.448 -18.4983ZM123.493 13.1667C127.35 16.9828 127.371 23.2968 123.462 27.2424C119.553 31.1881 113.41 31.0554 109.56 27.2385L102.367 20.1184L80.8733 41.8276C76.9645 45.7732 70.653 45.8114 66.7969 41.9954C62.8587 38.0973 62.8319 31.7841 66.7407 27.8385L88.2347 6.12929L81.0411 -0.996549C77.1028 -4.89464 76.9071 -11.037 80.8158 -14.9826C84.7246 -18.9282 91.0362 -18.9665 94.9744 -15.0684L123.493 13.1667Z" fill="#130F40"/>
<path d="M8.12798 -1.9758L36.8731 26.4849C40.7357 30.3059 40.856 36.5353 36.9579 40.4735C33.0598 44.4117 26.8278 44.3505 22.9709 40.5288L-5.77417 12.0681C-9.63681 8.2471 -9.75708 2.01769 -5.859 -1.92054C-1.96091 -5.85877 4.27109 -5.79758 8.12798 -1.9758ZM-23.3668 -5.3482C-27.3124 -9.25696 -27.4385 -15.4855 -23.5346 -19.4246C-19.6308 -23.3636 -13.4045 -23.3016 -9.45891 -19.3929C-5.59627 -15.5719 -5.476 -9.34251 -9.37408 -5.40428C-13.2722 -1.46605 -19.5033 -1.5215 -23.3611 -5.34903L-23.3668 -5.3482Z" fill="#130F40"/>
<path d="M43.6024 46.6759C47.4234 42.8133 53.7349 42.7751 57.6797 46.6781C61.5358 50.4941 61.5568 56.8081 57.735 60.665C53.8262 64.6107 47.5147 64.6489 43.6586 60.8329C39.7204 56.9348 39.6936 50.6215 43.6016 46.6702L43.6024 46.6759ZM11.7433 120.991L11.6603 120.903C-0.0730051 109.285 -0.236312 90.0932 11.4891 78.2506C23.2146 66.4079 42.408 66.3793 54.1414 77.9973L54.2243 78.0851C65.9577 89.703 66.0323 108.808 54.3956 120.737C42.5871 132.492 23.4767 132.609 11.7433 120.991ZM40.0921 106.579C44.0008 102.634 43.8911 96.2325 39.9471 92.3353C36.0089 88.4372 29.6965 88.4697 25.7885 92.4211C21.8806 96.3724 21.9065 102.68 25.8456 106.584C29.7846 110.488 36.1841 110.531 40.0929 106.585L40.0921 106.579Z" fill="#130F40"/>
<path d="M-23.5509 -5.56736C-27.4069 -9.3834 -27.4279 -15.6975 -23.5192 -19.6431C-19.6982 -23.5057 -13.3866 -23.544 -9.53058 -19.7279C-5.59152 -15.8241 -5.5656 -9.5166 -9.38656 -5.65396C-13.2953 -1.70834 -19.6069 -1.6701 -23.5451 -5.56818L-23.5509 -5.56736ZM-83.5608 -15.7021C-71.7523 -27.4569 -52.6419 -27.5733 -40.9085 -15.9554L-40.8255 -15.8676C-29.0922 -4.24964 -28.9289 14.9421 -40.6543 26.7847C-52.3798 38.6273 -71.5732 38.656 -83.3066 27.038L-83.3895 26.9502C-95.1229 15.3323 -95.1975 -3.77246 -83.5608 -15.7021ZM-69.1181 12.7008C-65.179 16.6047 -58.8674 16.5664 -54.9595 12.6151C-51.0507 8.66943 -51.0775 2.3562 -55.0165 -1.54763C-58.9548 -5.44572 -65.3551 -5.49446 -69.2638 -1.54883C-73.1726 2.3968 -73.0629 8.79781 -69.1189 12.6951L-69.1181 12.7008Z" fill="#130F40"/>
<path d="M-25.7912 97.2874L-45.8894 96.2024C-51.4278 95.9068 -55.64 91.2034 -55.3394 85.6585C-55.0388 80.1135 -50.3429 75.7674 -44.8037 76.0689L-24.7055 77.1538C-19.1671 77.4495 -14.4761 73.2332 -14.1763 67.6825C-13.8765 62.1318 -18.0879 57.4342 -23.6263 57.1385L-43.7245 56.0536C-49.2629 55.7579 -53.4686 50.9363 -53.1689 45.3856C-52.8691 39.8349 -48.178 35.6186 -42.6396 35.9143L-22.5414 36.9992C-5.93121 37.8928 6.81724 52.1276 5.92115 68.7616C5.02588 85.4014 -9.181 98.181 -25.7912 97.2874Z" fill="#130F40"/>
<path d="M-45.0609 125.786L-4.84287 121.448C0.557744 120.866 5.46644 124.701 6.05831 130.211C6.65019 135.722 2.67553 140.516 -2.72509 141.098L-42.9432 145.436C-48.3438 146.018 -53.2525 142.183 -53.8443 136.672C-54.4362 131.162 -50.4616 126.368 -45.0609 125.786ZM-67.5546 148.09C-73.0768 148.684 -77.9854 144.849 -78.5773 139.338C-79.1692 133.827 -75.1945 129.034 -69.6724 128.44C-64.2718 127.858 -59.3631 131.693 -58.7655 137.203C-58.1679 142.713 -62.1483 147.507 -67.5489 148.089L-67.5546 148.09Z" fill="#130F40"/>
<path d="M52.1317 12.4522L43.5544 11.9887C41.1904 11.8648 39.3941 9.85283 39.5238 7.48804C39.6534 5.12325 41.6571 3.26945 44.0211 3.39337L52.5984 3.85683C54.9624 3.98075 56.962 2.18032 57.0917 -0.184469C57.2214 -2.54926 55.4201 -4.55467 53.0611 -4.68516L44.4838 -5.14861C42.1198 -5.27252 40.3284 -7.33213 40.4572 -9.70267C40.5861 -12.0732 42.5865 -13.8679 44.9505 -13.744L53.5278 -13.2805C60.6156 -12.8964 66.0563 -6.82687 65.6739 0.272421C65.2915 7.37172 59.2293 12.8231 52.1423 12.4448L52.1317 12.4522Z" fill="#130F40"/>
<path d="M24.2576 148.585L20.3565 148.377C19.2809 148.32 18.4632 147.406 18.5199 146.33C18.5766 145.254 19.4874 144.408 20.5639 144.47L24.465 144.679C25.5406 144.735 26.4498 143.918 26.5122 142.842C26.5747 141.765 25.7513 140.851 24.6756 140.795L20.7746 140.586C19.6989 140.53 18.8837 139.591 18.9404 138.515C18.9971 137.44 19.9112 136.616 20.9877 136.679L24.8888 136.887C28.1165 137.063 30.5891 139.822 30.4141 143.056C30.2391 146.289 27.4805 148.768 24.2535 148.598L24.2576 148.585Z" fill="#130F40"/>
<path d="M195.809 -44.8329L195.928 -44.7386C211.989 -32.0235 214.82 -8.3876 201.991 7.81903C189.162 24.0257 165.502 26.6899 149.447 13.9798L149.328 13.8854C133.267 1.17035 130.555 -22.377 143.265 -38.6722C156.214 -54.7845 179.754 -57.543 195.815 -44.8337L195.809 -44.8329ZM162.84 -23.177C158.566 -17.777 159.579 -9.90445 164.972 -5.63465C170.366 -1.36484 178.141 -2.2761 182.416 -7.67612C186.691 -13.0761 185.797 -20.8543 180.403 -25.1242C175.01 -29.394 167.116 -28.5713 162.841 -23.1713L162.84 -23.177ZM166.728 51.1546C162.542 56.4421 154.767 57.3533 149.373 53.0835C144.099 48.9081 143.199 41.1307 147.384 35.8432C151.659 30.4432 159.435 29.5319 164.715 33.7066C170.108 37.9764 171.002 45.7546 166.728 51.1546Z" fill="#130F40"/>
</svg>
