<svg width="1177" height="140" viewBox="0 0 1177 140" fill="none" xmlns="http://www.w3.org/2000/svg">
<g clip-path="url(#clip0_1678_3915)">
<rect width="1177" height="146" fill="#F5F5F5"/>
<g clip-path="url(#clip1_1678_3915)">
<path d="M1122.68 150.082C1120.27 153.86 1115.3 154.966 1111.53 152.564C1107.76 150.158 1106.66 145.189 1109.07 141.407C1111.48 137.629 1116.45 136.523 1120.22 138.925C1123.99 141.327 1125.09 146.3 1122.68 150.078L1122.68 150.082ZM1108.57 126.998C1104.88 124.647 1103.79 119.672 1106.19 115.894C1108.6 112.116 1113.47 111.173 1117.16 113.526L1124.04 117.914L1137.29 97.1305C1139.7 93.3528 1144.67 92.2462 1148.36 94.5975C1152.13 96.9995 1153.23 101.973 1150.82 105.751L1137.57 126.534L1144.46 130.926C1148.23 133.328 1149.43 138.138 1147.02 141.915C1144.61 145.693 1139.64 146.8 1135.87 144.398L1108.57 126.998Z" fill="#130F40"/>
<path d="M1202.12 119.263L1174.6 101.724C1170.9 99.3704 1169.74 94.4791 1172.15 90.709C1174.55 86.9389 1179.47 85.9243 1183.17 88.28L1210.68 105.819C1214.38 108.173 1215.54 113.064 1213.14 116.834C1210.74 120.604 1205.81 121.619 1202.12 119.263ZM1227.53 116.551C1231.3 118.96 1232.47 123.85 1230.06 127.622C1227.65 131.393 1222.73 132.406 1218.96 129.997C1215.26 127.643 1214.1 122.752 1216.5 118.982C1218.9 115.212 1223.83 114.193 1227.52 116.553L1227.53 116.551Z" fill="#130F40"/>
<path d="M1189.23 192.066C1186.82 195.843 1181.94 197.003 1178.16 194.599C1174.39 192.197 1173.38 187.272 1175.79 183.495C1178.14 179.797 1183.03 178.64 1186.8 181.042C1190.57 183.448 1191.59 188.368 1189.23 192.061L1189.23 192.066ZM1186.52 166.657L1204.06 139.138C1206.41 135.44 1211.3 134.283 1215.07 136.685C1218.85 139.091 1219.86 144.011 1217.5 147.704L1199.96 175.224C1197.61 178.921 1192.72 180.078 1188.95 177.676C1185.18 175.274 1184.16 170.35 1186.52 166.657Z" fill="#130F40"/>
<path d="M1165.85 86.9521C1163.5 90.6494 1158.53 91.756 1154.75 89.3512C1151.06 87 1149.96 82.0249 1152.32 78.332C1154.73 74.5543 1159.7 73.4477 1163.39 75.799C1167.16 78.2009 1168.26 83.1743 1165.85 86.9565L1165.85 86.9521ZM1178.3 22.9218L1178.38 22.9769C1189.61 30.1365 1193.01 45.2412 1185.79 56.5788C1178.56 67.9164 1163.43 71.2124 1152.2 64.0527L1152.12 63.9977C1140.88 56.8381 1137.57 41.7868 1144.71 30.3958C1152.01 19.1132 1167.06 15.7622 1178.3 22.9218ZM1158.4 39.12C1155.99 42.8977 1157.17 47.9262 1160.94 50.3265C1164.71 52.7285 1169.69 51.6263 1172.09 47.8442C1174.5 44.062 1173.41 39.093 1169.63 36.6867C1165.86 34.2803 1160.81 35.3378 1158.4 39.1156L1158.4 39.12Z" fill="#130F40"/>
<path d="M1164.96 115.392L1171.8 114.294C1173.69 113.989 1175.45 115.269 1175.75 117.156C1176.05 119.042 1174.79 120.846 1172.9 121.151L1166.06 122.249C1164.17 122.554 1162.9 124.315 1163.21 126.201C1163.51 128.088 1165.27 129.362 1167.15 129.063L1173.99 127.965C1175.88 127.66 1177.64 128.978 1177.94 130.869C1178.25 132.761 1176.98 134.517 1175.09 134.822L1168.25 135.92C1162.59 136.826 1157.27 132.968 1156.36 127.305C1155.45 121.642 1159.3 116.31 1164.95 115.399L1164.96 115.392Z" fill="#130F40"/>
<path d="M1163.72 3.29803L1166.83 2.79687C1167.69 2.65813 1168.49 3.24008 1168.63 4.0979C1168.77 4.95571 1168.2 5.7784 1167.34 5.91275L1164.23 6.41391C1163.37 6.55265 1162.79 7.35175 1162.92 8.21119C1163.06 9.07064 1163.86 9.65096 1164.72 9.51222L1167.83 9.01106C1168.69 8.87232 1169.49 9.47348 1169.63 10.3313C1169.77 11.1891 1169.19 11.9942 1168.33 12.1286L1165.22 12.6297C1162.64 13.0416 1160.22 11.2874 1159.81 8.70796C1159.4 6.12849 1161.15 3.70384 1163.72 3.28761L1163.72 3.29803Z" fill="#130F40"/>
<path d="M1061.44 185.064L1061.33 185.01C1046.5 177.724 1040.24 159.57 1047.59 144.603C1054.94 129.636 1073.14 123.5 1087.97 130.784L1088.08 130.838C1102.91 138.125 1109.06 156.229 1101.82 171.245C1094.36 186.158 1076.27 192.348 1061.44 185.066L1061.44 185.064ZM1083.74 162.366C1086.19 157.379 1084.05 151.344 1079.07 148.898C1074.09 146.451 1068.11 148.495 1065.66 153.482C1063.22 158.469 1065.25 164.45 1070.23 166.897C1075.21 169.344 1081.29 167.349 1083.74 162.362L1083.74 162.366ZM1068 104.419C1070.4 99.536 1076.38 97.4914 1081.36 99.9382C1086.23 102.331 1088.26 108.31 1085.87 113.193C1083.42 118.18 1077.44 120.225 1072.56 117.833C1067.58 115.387 1065.55 109.406 1068 104.419Z" fill="#130F40"/>
</g>
<g clip-path="url(#clip2_1678_3915)">
<path d="M112.448 -18.4983C116.356 -22.4439 122.668 -22.4822 126.606 -18.5841C130.545 -14.6802 130.571 -8.37275 126.663 -4.42138C122.755 -0.475749 116.443 -0.437512 112.505 -4.3356C108.566 -8.23368 108.54 -14.5469 112.449 -18.4926L112.448 -18.4983ZM123.493 13.1667C127.35 16.9828 127.371 23.2968 123.462 27.2424C119.553 31.1881 113.41 31.0554 109.56 27.2385L102.367 20.1184L80.8733 41.8276C76.9645 45.7732 70.653 45.8114 66.7969 41.9954C62.8587 38.0973 62.8319 31.7841 66.7407 27.8385L88.2347 6.12929L81.0411 -0.996549C77.1028 -4.89464 76.9071 -11.037 80.8158 -14.9826C84.7246 -18.9282 91.0362 -18.9665 94.9744 -15.0684L123.493 13.1667Z" fill="#130F40"/>
<path d="M8.12798 -1.9758L36.8731 26.4849C40.7357 30.3059 40.856 36.5353 36.9579 40.4735C33.0598 44.4117 26.8278 44.3505 22.9709 40.5288L-5.77417 12.0681C-9.63681 8.2471 -9.75708 2.01769 -5.859 -1.92054C-1.96091 -5.85877 4.27109 -5.79758 8.12798 -1.9758ZM-23.3668 -5.3482C-27.3124 -9.25696 -27.4385 -15.4855 -23.5346 -19.4246C-19.6308 -23.3636 -13.4045 -23.3016 -9.45891 -19.3929C-5.59627 -15.5719 -5.476 -9.34251 -9.37408 -5.40428C-13.2722 -1.46605 -19.5033 -1.5215 -23.3611 -5.34903L-23.3668 -5.3482Z" fill="#130F40"/>
<path d="M43.6024 46.6759C47.4234 42.8133 53.7349 42.7751 57.6797 46.6781C61.5358 50.4941 61.5568 56.8081 57.735 60.665C53.8262 64.6107 47.5147 64.6489 43.6586 60.8329C39.7204 56.9348 39.6936 50.6215 43.6016 46.6702L43.6024 46.6759ZM11.7433 120.991L11.6603 120.903C-0.0730051 109.285 -0.236312 90.0932 11.4891 78.2506C23.2146 66.4079 42.408 66.3793 54.1414 77.9973L54.2243 78.0851C65.9577 89.703 66.0323 108.808 54.3956 120.737C42.5871 132.492 23.4767 132.609 11.7433 120.991ZM40.0921 106.579C44.0008 102.634 43.8911 96.2325 39.9471 92.3353C36.0089 88.4372 29.6965 88.4697 25.7885 92.4211C21.8806 96.3724 21.9065 102.68 25.8456 106.584C29.7846 110.488 36.1841 110.531 40.0929 106.585L40.0921 106.579Z" fill="#130F40"/>
<path d="M-23.5509 -5.56736C-27.4069 -9.3834 -27.4279 -15.6975 -23.5192 -19.6431C-19.6982 -23.5057 -13.3866 -23.544 -9.53058 -19.7279C-5.59152 -15.8241 -5.5656 -9.5166 -9.38656 -5.65396C-13.2953 -1.70834 -19.6069 -1.6701 -23.5451 -5.56818L-23.5509 -5.56736ZM-83.5608 -15.7021C-71.7523 -27.4569 -52.6419 -27.5733 -40.9085 -15.9554L-40.8255 -15.8676C-29.0922 -4.24964 -28.9289 14.9421 -40.6543 26.7847C-52.3798 38.6273 -71.5732 38.656 -83.3066 27.038L-83.3895 26.9502C-95.1229 15.3323 -95.1975 -3.77246 -83.5608 -15.7021ZM-69.1181 12.7008C-65.179 16.6047 -58.8674 16.5664 -54.9595 12.6151C-51.0507 8.66943 -51.0775 2.3562 -55.0165 -1.54763C-58.9548 -5.44572 -65.3551 -5.49446 -69.2638 -1.54883C-73.1726 2.3968 -73.0629 8.79781 -69.1189 12.6951L-69.1181 12.7008Z" fill="#130F40"/>
<path d="M-25.7912 97.2874L-45.8894 96.2024C-51.4278 95.9068 -55.64 91.2034 -55.3394 85.6585C-55.0388 80.1135 -50.3429 75.7674 -44.8037 76.0689L-24.7055 77.1538C-19.1671 77.4495 -14.4761 73.2332 -14.1763 67.6825C-13.8765 62.1318 -18.0879 57.4342 -23.6263 57.1385L-43.7245 56.0536C-49.2629 55.7579 -53.4686 50.9363 -53.1689 45.3856C-52.8691 39.8349 -48.178 35.6186 -42.6396 35.9143L-22.5414 36.9992C-5.93121 37.8928 6.81724 52.1276 5.92115 68.7616C5.02588 85.4014 -9.181 98.181 -25.7912 97.2874Z" fill="#130F40"/>
<path d="M-45.0609 125.786L-4.84287 121.448C0.557744 120.866 5.46644 124.701 6.05831 130.211C6.65019 135.722 2.67553 140.516 -2.72509 141.098L-42.9432 145.436C-48.3438 146.018 -53.2525 142.183 -53.8443 136.672C-54.4362 131.162 -50.4616 126.368 -45.0609 125.786ZM-67.5546 148.09C-73.0768 148.684 -77.9854 144.849 -78.5773 139.338C-79.1692 133.827 -75.1945 129.034 -69.6724 128.44C-64.2718 127.858 -59.3631 131.693 -58.7655 137.203C-58.1679 142.713 -62.1483 147.507 -67.5489 148.089L-67.5546 148.09Z" fill="#130F40"/>
<path d="M52.1317 12.4522L43.5544 11.9887C41.1904 11.8648 39.3941 9.85283 39.5238 7.48804C39.6534 5.12325 41.6571 3.26945 44.0211 3.39337L52.5984 3.85683C54.9624 3.98075 56.962 2.18032 57.0917 -0.184469C57.2214 -2.54926 55.4201 -4.55467 53.0611 -4.68516L44.4838 -5.14861C42.1198 -5.27252 40.3284 -7.33213 40.4572 -9.70267C40.5861 -12.0732 42.5865 -13.8679 44.9505 -13.744L53.5278 -13.2805C60.6156 -12.8964 66.0563 -6.82687 65.6739 0.272421C65.2915 7.37172 59.2293 12.8231 52.1423 12.4448L52.1317 12.4522Z" fill="#130F40"/>
<path d="M24.2576 148.585L20.3565 148.377C19.2809 148.32 18.4632 147.406 18.5199 146.33C18.5766 145.254 19.4874 144.408 20.5639 144.47L24.465 144.679C25.5406 144.735 26.4498 143.918 26.5122 142.842C26.5747 141.765 25.7513 140.851 24.6756 140.795L20.7746 140.586C19.6989 140.53 18.8837 139.591 18.9404 138.515C18.9971 137.44 19.9112 136.616 20.9877 136.679L24.8888 136.887C28.1165 137.063 30.5891 139.822 30.4141 143.056C30.2391 146.289 27.4805 148.768 24.2535 148.598L24.2576 148.585Z" fill="#130F40"/>
<path d="M195.809 -44.8329L195.928 -44.7386C211.989 -32.0235 214.82 -8.3876 201.991 7.81903C189.162 24.0257 165.502 26.6899 149.447 13.9798L149.328 13.8854C133.267 1.17035 130.555 -22.377 143.265 -38.6722C156.214 -54.7845 179.754 -57.543 195.815 -44.8337L195.809 -44.8329ZM162.84 -23.177C158.566 -17.777 159.579 -9.90445 164.972 -5.63465C170.366 -1.36484 178.141 -2.2761 182.416 -7.67612C186.691 -13.0761 185.797 -20.8543 180.403 -25.1242C175.01 -29.394 167.116 -28.5713 162.841 -23.1713L162.84 -23.177ZM166.728 51.1546C162.542 56.4421 154.767 57.3533 149.373 53.0835C144.099 48.9081 143.199 41.1307 147.384 35.8432C151.659 30.4432 159.435 29.5319 164.715 33.7066C170.108 37.9764 171.002 45.7546 166.728 51.1546Z" fill="#130F40"/>
</g>
<g clip-path="url(#clip3_1678_3915)">
<path d="M474.833 63.8472C474.833 68.7373 470.833 72.7602 465.861 72.7602C460.89 72.7602 457 68.7373 457 63.8472C457 58.957 461 54.9342 465.861 54.9342C470.723 54.9342 474.833 58.8463 474.833 63.8472ZM506.284 41.3498C501.313 41.3498 497.423 45.37 497.313 50.2628V91.1292C497.313 96.0194 493.423 100.042 488.451 100.042C483.479 100.042 479.59 96.022 479.59 91.1292V50.2602C479.59 35.5871 491.372 23.6319 505.961 23.4131C510.718 23.5212 514.608 27.544 514.608 32.4342C514.608 37.3243 510.608 41.3472 505.746 41.3472H506.287L506.284 41.3498ZM519.687 63.8472C519.687 68.7373 515.687 72.7602 510.715 72.7602C505.743 72.7602 501.854 68.74 501.854 63.8472C501.854 58.9544 505.854 54.9342 510.715 54.9342C515.577 54.9342 519.687 58.8463 519.687 63.8472Z" fill="#130F40"/>
<path d="M526.71 32.4371C526.71 27.4389 530.6 23.416 535.571 23.416C540.543 23.416 544.433 27.4362 544.433 32.4371C544.433 37.438 540.543 41.3501 535.571 41.3501C530.6 41.3501 526.71 37.3299 526.71 32.4371ZM544.436 54.7183V91.1295C544.436 96.0197 540.546 100.043 535.574 100.043C530.602 100.043 526.713 96.0223 526.713 91.1295V54.7183C526.713 49.8281 530.602 45.8053 535.574 45.8053C540.546 45.8053 544.436 49.8255 544.436 54.7183Z" fill="#130F40"/>
<path d="M562.159 50.8062C562.592 50.4793 563.13 50.155 563.671 49.8281L563.887 49.612H563.994C568.425 47.4371 573.83 49.3958 575.992 53.851C577.612 57.2201 576.964 61.2429 574.587 63.8501C574.011 64.4301 573.254 65.1181 572.317 65.9143C570.371 67.5434 568.859 69.5021 568.859 72.8712C568.859 77.8721 572.966 81.8923 577.938 81.8923C579.451 81.7842 581.397 81.6735 583.558 79.8281C585.612 78.199 586.91 75.6972 586.91 72.8712V32.4371C586.91 27.4389 590.91 23.416 595.882 23.416C600.853 23.416 604.961 27.4362 604.961 32.4371V72.8686C604.853 75.2596 604.638 77.5425 604.097 79.7148C601.071 91.3457 590.479 100.04 577.941 100.04H577.833C563.025 100.04 550.92 87.8659 550.92 72.8686C550.92 63.8475 555.351 55.8044 562.161 50.8035L562.159 50.8062Z" fill="#130F40"/>
<path d="M637.016 63.1643C633.09 63.1643 630.161 62.3497 628.234 60.7232C626.303 59.0967 625.339 56.3761 625.339 52.5668V46.746H610.148C610.148 42.797 610.957 39.8524 612.578 37.9121C614.195 35.9745 616.901 35.0018 620.691 35.0018H625.342V19C629.268 19 632.197 19.7645 634.125 21.2856C636.052 22.8093 637.019 25.2346 637.019 28.5589V35.0018H652.003C652.003 38.9508 651.244 41.8954 649.728 43.8357C648.213 45.7759 645.802 46.746 642.495 46.746H637.019V63.1643H637.016Z" fill="#6AB04C"/>
<path d="M483.222 114.148C484.667 114.148 485.812 114.879 486.308 116.176H485.265C484.903 115.369 484.194 114.916 483.219 114.916C481.825 114.916 480.782 115.933 480.782 117.578C480.782 119.223 481.825 120.23 483.219 120.23C484.194 120.23 484.903 119.779 485.265 118.981H486.308C485.812 120.267 484.664 120.989 483.222 120.989C481.357 120.989 479.897 119.587 479.897 117.578C479.897 115.569 481.36 114.148 483.222 114.148Z" fill="#6AB04C"/>
<path d="M492.84 121C490.967 121 489.494 119.587 489.494 117.578C489.494 115.569 490.965 114.156 492.84 114.156C494.715 114.156 496.186 115.569 496.186 117.578C496.186 119.587 494.723 121 492.84 121ZM492.84 120.241C494.245 120.241 495.296 119.212 495.296 117.578C495.296 115.944 494.245 114.915 492.84 114.915C491.435 114.915 490.384 115.933 490.384 117.578C490.384 119.223 491.435 120.241 492.84 120.241Z" fill="#6AB04C"/>
<path d="M504.787 114.225V120.931H503.918L500.42 115.598V120.931H499.55V114.225H500.42L503.918 119.55V114.225H504.787Z" fill="#6AB04C"/>
<path d="M512.07 114.945H509.355V117.183H511.781V117.903H509.355V120.209H512.07V120.929H508.485V114.223H512.07V114.942V114.945Z" fill="#6AB04C"/>
<path d="M518.608 114.148C520.052 114.148 521.197 114.879 521.694 116.176H520.651C520.288 115.369 519.579 114.916 518.605 114.916C517.21 114.916 516.168 115.933 516.168 117.578C516.168 119.223 517.21 120.23 518.605 120.23C519.579 120.23 520.286 119.779 520.651 118.981H521.694C521.197 120.267 520.049 120.989 518.608 120.989C516.743 120.989 515.28 119.587 515.28 117.578C515.28 115.569 516.743 114.148 518.608 114.148Z" fill="#6AB04C"/>
<path d="M524.79 114.232H529.302V114.944H527.485V120.931H526.615V114.944H524.79V114.232Z" fill="#6AB04C"/>
<path d="M536.176 114.945H533.463V117.183H535.889V117.903H533.463V120.209H536.176V120.929H532.591V114.223H536.176V114.942V114.945Z" fill="#6AB04C"/>
<path d="M548.065 114.945H545.35V117.183H547.776V117.903H545.35V120.209H548.065V120.929H544.48V114.223H548.065V114.942V114.945Z" fill="#6AB04C"/>
<path d="M556.37 114.232H560.136V114.944H557.239V117.203H559.59V117.915H557.239V120.934H556.37V114.235V114.232Z" fill="#6AB04C"/>
<path d="M563.406 114.232H564.275V120.931H563.406V114.232Z" fill="#6AB04C"/>
<path d="M573.586 117.596C573.586 119.671 572.239 120.931 570.051 120.931H567.976V114.232H570.051C572.239 114.232 573.586 115.519 573.586 117.596ZM570.051 120.211C571.79 120.211 572.698 119.231 572.698 117.596C572.698 115.962 571.79 114.944 570.051 114.944H568.848V120.211H570.051Z" fill="#6AB04C"/>
<path d="M580.533 114.945H577.82V117.183H580.247V117.903H577.82V120.209H580.533V120.929H576.948V114.223H580.533V114.942V114.945Z" fill="#6AB04C"/>
<path d="M584.94 114.232V120.219H587.272V120.931H584.071V114.232H584.94Z" fill="#6AB04C"/>
<path d="M590.416 114.232H591.285V120.931H590.416V114.232Z" fill="#6AB04C"/>
<path d="M598.952 114.926L595.721 120.172H598.97V120.931H594.689V120.241L597.92 114.995H594.726V114.235H598.952V114.926Z" fill="#6AB04C"/>
<path d="M605.959 114.945H603.246V117.183H605.673V117.903H603.246V120.209H605.959V120.929H602.374V114.223H605.959V114.942V114.945Z" fill="#6AB04C"/>
</g>
</g>
<defs>
<clipPath id="clip0_1678_3915">
<rect width="1177" height="146" fill="white"/>
</clipPath>
<clipPath id="clip1_1678_3915">
<rect width="279.302" height="270.038" fill="white" transform="translate(978 -15.752) rotate(-20.3762)"/>
</clipPath>
<clipPath id="clip2_1678_3915">
<rect width="346.216" height="334.732" fill="white" transform="translate(244.279 220.334) rotate(171.829)"/>
</clipPath>
<clipPath id="clip3_1678_3915">
<rect width="195" height="102" fill="white" transform="translate(457 19)"/>
</clipPath>
</defs>
</svg>
