<svg width="199" height="140" viewBox="0 0 199 140" fill="none" xmlns="http://www.w3.org/2000/svg">
<path d="M144.68 150.082C142.271 153.86 137.301 154.966 133.531 152.564C129.759 150.158 128.663 145.189 131.071 141.407C133.48 137.629 138.45 136.523 142.22 138.925C145.99 141.327 147.088 146.3 144.679 150.078L144.68 150.082ZM130.57 126.998C126.879 124.647 125.786 119.672 128.195 115.894C130.604 112.116 135.47 111.173 139.157 113.526L146.043 117.914L159.288 97.1305C161.697 93.3528 166.667 92.2462 170.359 94.5975C174.129 96.9995 175.227 101.973 172.817 105.751L159.572 126.534L166.459 130.926C170.229 133.328 171.431 138.138 169.022 141.915C166.613 145.693 161.643 146.8 157.873 144.398L130.57 126.998Z" fill="#130F40"/>
<path d="M224.118 119.263L196.599 101.724C192.901 99.3704 191.744 94.4791 194.146 90.709C196.548 86.9389 201.472 85.9243 205.165 88.28L232.685 105.819C236.382 108.173 237.539 113.064 235.137 116.834C232.735 120.604 227.811 121.619 224.118 119.263ZM249.527 116.551C253.304 118.96 254.466 123.85 252.06 127.622C249.653 131.393 244.733 132.406 240.956 129.997C237.258 127.643 236.101 122.752 238.503 118.982C240.905 115.212 245.828 114.193 249.522 116.553L249.527 116.551Z" fill="#130F40"/>
<path d="M211.232 192.066C208.823 195.843 203.938 197.003 200.162 194.599C196.392 192.197 195.377 187.272 197.786 183.495C200.14 179.797 205.031 178.64 208.802 181.042C212.573 183.448 213.586 188.368 211.231 192.061L211.232 192.066ZM208.52 166.657L226.059 139.138C228.413 135.44 233.304 134.283 237.074 136.685C240.846 139.091 241.859 144.011 239.503 147.704L221.964 175.224C219.61 178.921 214.719 180.078 210.949 177.676C207.179 175.274 206.164 170.35 208.52 166.657Z" fill="#130F40"/>
<path d="M187.849 86.9521C185.495 90.6494 180.525 91.756 176.749 89.3512C173.058 87 171.964 82.0249 174.32 78.332C176.729 74.5543 181.699 73.4477 185.39 75.799C189.161 78.2009 190.258 83.1743 187.851 86.9565L187.849 86.9521ZM200.296 22.9218L200.376 22.9769C211.609 30.1365 215.011 45.2412 207.785 56.5788C200.56 67.9164 185.431 71.2124 174.198 64.0527L174.117 63.9977C162.884 56.8381 159.567 41.7868 166.708 30.3958C174.014 19.1132 189.063 15.7622 200.296 22.9218ZM180.401 39.12C177.992 42.8977 179.17 47.9262 182.944 50.3265C186.714 52.7285 191.686 51.6263 194.094 47.8442C196.501 44.062 195.405 39.093 191.633 36.6867C187.862 34.2803 182.808 35.3378 180.399 39.1156L180.401 39.12Z" fill="#130F40"/>
<path d="M186.961 115.392L193.803 114.294C195.688 113.989 197.448 115.269 197.749 117.156C198.05 119.042 196.786 120.846 194.901 121.151L188.059 122.249C186.174 122.554 184.904 124.315 185.205 126.201C185.506 128.088 187.268 129.362 189.151 129.063L195.993 127.965C197.878 127.66 199.642 128.978 199.945 130.869C200.247 132.761 198.976 134.517 197.091 134.822L190.249 135.92C184.594 136.826 179.269 132.968 178.36 127.305C177.451 121.642 181.301 116.31 186.954 115.399L186.961 115.392Z" fill="#130F40"/>
<path d="M185.722 3.29803L188.834 2.79687C189.692 2.65813 190.492 3.24008 190.631 4.0979C190.77 4.95571 190.196 5.7784 189.337 5.91275L186.225 6.41391C185.367 6.55265 184.79 7.35175 184.924 8.21119C185.058 9.07064 185.864 9.65096 186.721 9.51222L189.833 9.01106C190.691 8.87232 191.493 9.47348 191.632 10.3313C191.771 11.1891 191.191 11.9942 190.331 12.1286L187.22 12.6297C184.645 13.0416 182.224 11.2874 181.811 8.70796C181.397 6.12849 183.15 3.70384 185.723 3.28761L185.722 3.29803Z" fill="#130F40"/>
<path d="M83.4417 185.064L83.3317 185.01C68.499 177.724 62.2358 159.57 69.5875 144.603C76.9392 129.636 95.1404 123.5 109.967 130.784L110.077 130.838C124.91 138.125 131.065 156.229 123.821 171.245C116.36 186.158 98.2684 192.348 83.4373 185.066L83.4417 185.064ZM105.744 162.366C108.194 157.379 106.052 151.344 101.071 148.898C96.0903 146.451 90.1145 148.495 87.6649 153.482C85.2153 158.469 87.2467 164.45 92.2277 166.897C97.2086 169.344 103.293 167.349 105.742 162.362L105.744 162.366ZM90.0018 104.419C92.4001 99.536 98.3758 97.4914 103.357 99.9382C108.228 102.331 110.264 108.31 107.865 113.193C105.416 118.18 99.4398 120.225 94.5645 117.833C89.5836 115.387 87.5521 109.406 90.0018 104.419Z" fill="#130F40"/>
</svg>
